# xmcd
#
# Track frame offsets: 
#        150
#        11775
#        22867
#        34080
#        45297
#        57667
#        73382
#        84500
#        97427
#        107412
#        118152
#        131917
#        141755
#        152655
#        164377
#        175020
#        187592
#        199032
#
# Disc length: 2770 seconds
#
# Revision: 0
# Processed by: cddbd v1.5.2PL0 Copyright (c) Steve Scherf et al.
# Submitted via: ExactAudioCopyFreeDBPlugin 1.0
#
DISCID=f50ad012
DTITLE=Various Artist - First Degree Love
DYEAR=2000
DGENRE=Soul
TTITLE0=Dynamics - Yes, I Love You Baby (Vocal)
TTITLE1=Frankie Garcia - I've Got That Feeling
TTITLE2=Lafayette Vaughan - First Degree Love
TTITLE3=Royal Playboys - Arabia
TTITLE4=Metros - What's Wrong With YOur Love (Version 1)
TTITLE5=Metros - We Still Have Time
TTITLE6=Doni Burdick - Candle
TTITLE7=Doni Burdick - Whatcha Gonna Do
TTITLE8=Johnny Rogers - Soul Food
TTITLE9=Doni Burdick - If You Walk Out Of My Life
TTITLE10=Doni Burdick - Bari Track
TTITLE11=George Lemons - Fascinating Girl (Vocal)
TTITLE12=Forest Hairston - Go To Pieces
TTITLE13=Dynamics - Whenever I'm With You
TTITLE14=Willie White - Nobody Likes Me
TTITLE15=Highlights - Go Down
TTITLE16=Brooks Bros - Looking For A Woman
TTITLE17=Bob and Fred (Baha Strings) - I'll Be On My Way
EXTD=
EXTT0=
EXTT1=
EXTT2=
EXTT3=
EXTT4=
EXTT5=
EXTT6=
EXTT7=
EXTT8=
EXTT9=
EXTT10=
EXTT11=
EXTT12=
EXTT13=
EXTT14=
EXTT15=
EXTT16=
EXTT17=
PLAYORDER=
